<svg width="300" height="300" xmlns="http://www.w3.org/2000/svg">
 <!-- Created with SVG-edit - http://svg-edit.googlecode.com/ -->
 <g>
  <title>Layer 1</title>
  <metadata id="svg_2"/>
  <path id="svg_77" d="m78.74998,27.61184l7.50001,13.96302" stroke-miterlimit="4" stroke-linecap="round" stroke-width="6" stroke="#44aa00" fill="#66aa66"/>
  <path id="svg_75" d="m26.59137,83.67573l12.99042,8.06154" stroke-miterlimit="4" stroke-linecap="round" stroke-width="6" stroke="#44aa00" fill="#66aa66"/>
  <path id="svg_73" d="m7.5,160.26042l15,0" stroke-miterlimit="4" stroke-linecap="round" stroke-width="6" stroke="#44aa00" fill="#66aa66"/>
  <path id="svg_71" d="m26.59137,236.84508l12.99042,-8.06151" stroke-miterlimit="4" stroke-linecap="round" stroke-width="6" stroke="#44aa00" fill="#66aa66"/>
  <path id="svg_69" d="m78.74998,292.90897l7.50001,-13.96295" stroke-miterlimit="4" stroke-linecap="round" stroke-width="6" stroke="#44aa00" fill="#66aa66"/>
  <path id="svg_66" d="m149.99997,7.09103l0,16.12309" stroke-miterlimit="4" stroke-linecap="round" stroke-width="6" stroke="#44aa00" fill="#66aa66"/>
  <path id="svg_64" d="m221.24997,292.90897l-7.5,-13.96295" stroke-miterlimit="4" stroke-linecap="round" stroke-width="6" stroke="#44aa00" fill="#66aa66"/>
  <path id="svg_62" d="m273.4086,236.84508l-12.99036,-8.06151" stroke-miterlimit="4" stroke-linecap="round" stroke-width="6" stroke="#44aa00" fill="#66aa66"/>
  <path id="svg_60" d="m292.5,160.26042l-15.00003,0" stroke-miterlimit="4" stroke-linecap="round" stroke-width="6" stroke="#44aa00" fill="#66aa66"/>
  <path id="svg_58" d="m273.4086,83.67573l-12.99036,8.06154" stroke-miterlimit="4" stroke-linecap="round" stroke-width="6" stroke="#44aa00" fill="#66aa66"/>
  <path id="svg_56" d="m221.24997,27.61184l-7.5,13.96302" stroke-miterlimit="4" stroke-linecap="round" stroke-width="6" stroke="#44aa00" fill="#66aa66"/>
  <path id="svg_55" d="m135.10464,7.93011l1.56792,16.03477" stroke-miterlimit="4" stroke-linecap="round" stroke-width="3" stroke="#44aa00" fill="#66aa66"/>
  <path id="svg_54" d="m120.37258,10.43815l3.11869,15.77077" stroke-miterlimit="4" stroke-linecap="round" stroke-width="3" stroke="#44aa00" fill="#66aa66"/>
  <path id="svg_53" d="m105.96507,14.58769l4.63525,15.33395" stroke-miterlimit="4" stroke-linecap="round" stroke-width="3" stroke="#44aa00" fill="#66aa66"/>
  <path id="svg_52" d="m92.04001,20.33322l6.10107,14.72917" stroke-miterlimit="4" stroke-linecap="round" stroke-width="3" stroke="#44aa00" fill="#66aa66"/>
  <path id="svg_51" d="m66.24059,36.34378l8.8168,13.04386" stroke-miterlimit="4" stroke-linecap="round" stroke-width="3" stroke="#44aa00" fill="#66aa66"/>
  <path id="svg_50" d="m54.64889,46.43339l10.03697,11.9818" stroke-miterlimit="4" stroke-linecap="round" stroke-width="3" stroke="#44aa00" fill="#66aa66"/>
  <path id="svg_49" d="m44.10188,57.77009l11.14718,10.78846" stroke-miterlimit="4" stroke-linecap="round" stroke-width="3" stroke="#44aa00" fill="#66aa66"/>
  <path id="svg_48" d="m34.71507,70.22971l12.13526,9.47693" stroke-miterlimit="4" stroke-linecap="round" stroke-width="3" stroke="#44aa00" fill="#66aa66"/>
  <path id="svg_47" d="m19.81977,97.96081l13.70317,6.55785" stroke-miterlimit="4" stroke-linecap="round" stroke-width="3" stroke="#44aa00" fill="#66aa66"/>
  <path id="svg_46" d="m14.47445,112.92847l14.26584,4.98233" stroke-miterlimit="4" stroke-linecap="round" stroke-width="3" stroke="#44aa00" fill="#66aa66"/>
  <path id="svg_45" d="m10.61397,128.41472l14.67221,3.35219" stroke-miterlimit="4" stroke-linecap="round" stroke-width="3" stroke="#44aa00" fill="#66aa66"/>
  <path id="svg_44" d="m8.28064,144.24982l14.91783,1.68535" stroke-miterlimit="4" stroke-linecap="round" stroke-width="3" stroke="#44aa00" fill="#66aa66"/>
  <path id="svg_43" d="m8.28064,176.27097l14.91783,-1.6853" stroke-miterlimit="4" stroke-linecap="round" stroke-width="3" stroke="#44aa00" fill="#66aa66"/>
  <path id="svg_42" d="m10.61397,192.10608l14.67221,-3.35214" stroke-miterlimit="4" stroke-linecap="round" stroke-width="3" stroke="#44aa00" fill="#66aa66"/>
  <path id="svg_41" d="m14.47444,207.59235l14.26582,-4.98235" stroke-miterlimit="4" stroke-linecap="round" stroke-width="3" stroke="#44aa00" fill="#66aa66"/>
  <path id="svg_40" d="m19.81977,222.56l13.70317,-6.55785" stroke-miterlimit="4" stroke-linecap="round" stroke-width="3" stroke="#44aa00" fill="#66aa66"/>
  <path id="svg_39" d="m34.71507,250.29112l12.13526,-9.47694" stroke-miterlimit="4" stroke-linecap="round" stroke-width="3" stroke="#44aa00" fill="#66aa66"/>
  <path id="svg_38" d="m44.10188,262.75076l11.14718,-10.78848" stroke-miterlimit="4" stroke-linecap="round" stroke-width="3" stroke="#44aa00" fill="#66aa66"/>
  <path id="svg_37" d="m54.64888,274.08743l10.03695,-11.98181" stroke-miterlimit="4" stroke-linecap="round" stroke-width="3" stroke="#44aa00" fill="#66aa66"/>
  <path id="svg_36" d="m66.24059,284.17703l8.8168,-13.04382" stroke-miterlimit="4" stroke-linecap="round" stroke-width="3" stroke="#44aa00" fill="#66aa66"/>
  <path id="svg_27" d="m233.75934,284.17703l-8.81676,-13.04382" stroke-miterlimit="4" stroke-linecap="round" stroke-width="3" stroke="#44aa00" fill="#66aa66"/>
  <path id="svg_26" d="m245.35107,274.08743l-10.03697,-11.98181" stroke-miterlimit="4" stroke-linecap="round" stroke-width="3" stroke="#44aa00" fill="#66aa66"/>
  <path id="svg_25" d="m255.8981,262.75076l-11.14716,-10.78848" stroke-miterlimit="4" stroke-linecap="round" stroke-width="3" stroke="#44aa00" fill="#66aa66"/>
  <path id="svg_24" d="m265.28488,250.29112l-12.13524,-9.47694" stroke-miterlimit="4" stroke-linecap="round" stroke-width="3" stroke="#44aa00" fill="#66aa66"/>
  <path id="svg_23" d="m280.18024,222.56l-13.70319,-6.55785" stroke-miterlimit="4" stroke-linecap="round" stroke-width="3" stroke="#44aa00" fill="#66aa66"/>
  <path id="svg_22" d="m285.52554,207.59235l-14.26584,-4.98235" stroke-miterlimit="4" stroke-linecap="round" stroke-width="3" stroke="#44aa00" fill="#66aa66"/>
  <path id="svg_21" d="m289.38599,192.10608l-14.67218,-3.35214" stroke-miterlimit="4" stroke-linecap="round" stroke-width="3" stroke="#44aa00" fill="#66aa66"/>
  <path id="svg_20" d="m291.7193,176.27097l-14.91779,-1.6853" stroke-miterlimit="4" stroke-linecap="round" stroke-width="3" stroke="#44aa00" fill="#66aa66"/>
  <path id="svg_19" d="m291.7193,144.24982l-14.91779,1.68535" stroke-miterlimit="4" stroke-linecap="round" stroke-width="3" stroke="#44aa00" fill="#66aa66"/>
  <path id="svg_18" d="m289.38599,128.41472l-14.67218,3.35219" stroke-miterlimit="4" stroke-linecap="round" stroke-width="3" stroke="#44aa00" fill="#66aa66"/>
  <path id="svg_17" d="m285.52554,112.92847l-14.26584,4.98233" stroke-miterlimit="4" stroke-linecap="round" stroke-width="3" stroke="#44aa00" fill="#66aa66"/>
  <path id="svg_16" d="m280.18024,97.96081l-13.70319,6.55787" stroke-miterlimit="4" stroke-linecap="round" stroke-width="3" stroke="#44aa00" fill="#66aa66"/>
  <path id="svg_15" d="m265.28488,70.22971l-12.13524,9.47693" stroke-miterlimit="4" stroke-linecap="round" stroke-width="3" stroke="#44aa00" fill="#66aa66"/>
  <path id="svg_14" d="m255.8981,57.77009l-11.14716,10.78848" stroke-miterlimit="4" stroke-linecap="round" stroke-width="3" stroke="#44aa00" fill="#66aa66"/>
  <path id="svg_13" d="m245.35107,46.43339l-10.03693,11.9818" stroke-miterlimit="4" stroke-linecap="round" stroke-width="3" stroke="#44aa00" fill="#66aa66"/>
  <path id="svg_12" d="m233.75934,36.34378l-8.81676,13.04386" stroke-miterlimit="4" stroke-linecap="round" stroke-width="3" stroke="#44aa00" fill="#66aa66"/>
  <path id="svg_11" d="m207.95993,20.33322l-6.10103,14.72917" stroke-miterlimit="4" stroke-linecap="round" stroke-width="3" stroke="#44aa00" fill="#66aa66"/>
  <path id="svg_10" d="m194.03488,14.58769l-4.63527,15.33395" stroke-miterlimit="4" stroke-linecap="round" stroke-width="3" stroke="#44aa00" fill="#66aa66"/>
  <path id="svg_9" d="m179.62737,10.43815l-3.11865,15.77077" stroke-miterlimit="4" stroke-linecap="round" stroke-width="3" stroke="#44aa00" fill="#66aa66"/>
  <path id="svg_8" d="m164.89531,7.93011l-1.56798,16.03477" stroke-miterlimit="4" stroke-linecap="round" stroke-width="3" stroke="#44aa00" fill="#66aa66"/>
 </g>
 </svg>